<svg width="36" height="36" viewBox="0 0 36 36" fill="none" xmlns="http://www.w3.org/2000/svg">
<path fill-rule="evenodd" clip-rule="evenodd" d="M4.5 4H5H5.5H8.97254H10V0H4.5C2.01472 0 0 2.01472 0 4.5V10H4V9V8.97254V5.5V5V4.5C4 4.22386 4.22386 4 4.5 4ZM12 12C12 10.8954 11.1046 10 10 10C8.89543 10 8 10.8954 8 12V14C8 15.1046 8.89543 16 10 16C11.1046 16 12 15.1046 12 14V12ZM28 12C28 10.8954 27.1046 10 26 10C24.8954 10 24 10.8954 24 12V14C24 15.1046 24.8954 16 26 16C27.1046 16 28 15.1046 28 14V12ZM32 5V4.5C32 4.22386 31.7761 4 31.5 4H31H30.5H27.0275H27H26V0H31.5C33.9853 0 36 2.01472 36 4.5V10H32V8.97254V5.5V5ZM31.5 32H31H30.5H27.0275H26V36H31.5C33.9853 36 36 33.9853 36 31.5V26H32V27V27.0275V30.5V31V31.5C32 31.7761 31.7761 32 31.5 32ZM4 31V31.5C4 31.7761 4.22386 32 4.5 32H5H5.5H8.97254H9H10V36H4.5C2.01472 36 0 33.9853 0 31.5V26H4V27.0275V30.5V31ZM18 10C19.1046 10 20 10.8954 20 12V18C20 18.5304 19.7893 19.0391 19.4142 19.4142L17.4142 21.4142C16.6332 22.1953 15.3668 22.1953 14.5858 21.4142C13.8047 20.6332 13.8047 19.3668 14.5858 18.5858L16 17.1716V12C16 10.8954 16.8954 10 18 10ZM13.887 25.7904C13.219 25.3005 12.2803 25.4449 11.7904 26.1129C11.3005 26.781 11.4449 27.7197 12.1129 28.2096L13.4766 29.2096C13.7339 29.3983 14.0446 29.5 14.3636 29.5H21.6364C21.9554 29.5 22.2661 29.3983 22.5234 29.2096L23.887 28.2096C24.5551 27.7197 24.6995 26.781 24.2096 26.1129C23.7197 25.4449 22.781 25.3005 22.1129 25.7904L21.1453 26.5H14.8547L13.887 25.7904Z" fill="black"/>
</svg>
