<svg width="52" height="48" viewBox="0 0 52 48" fill="none" xmlns="http://www.w3.org/2000/svg">
<path fill-rule="evenodd" clip-rule="evenodd" d="M51.4753 2.27134C51.5748 1.73027 51.3701 1.17814 50.942 0.832671C50.5138 0.487198 49.9309 0.40382 49.4231 0.615413L1.42308 20.6154C0.867661 20.8468 0.504285 21.3878 0.500038 21.9894C0.495791 22.5911 0.851496 23.1371 1.40359 23.3764L15.7888 29.61L19.577 40.9744C19.7333 41.4432 20.1104 41.805 20.5854 41.9416C21.0603 42.0782 21.5721 41.9721 21.9536 41.6579L29.4237 35.5061L40.9612 46.5821C41.3593 46.9643 41.9352 47.097 42.4604 46.9276C42.9856 46.7582 43.3754 46.3141 43.4753 45.7713L51.4753 2.27134ZM16.2688 26.5484L5.83503 22.0271L48.0246 4.4481L41.0287 42.4883L30.5388 32.4179C29.99 31.8911 29.1337 31.8585 28.5464 32.3421L21.7324 37.9537L21.6991 37.854L22 36.5L24 29L39.5 13L17 26L16.2688 26.5484Z" fill="black"/>
<path d="M51.4753 2.27134L50.9835 2.1809L50.9835 2.1809L51.4753 2.27134ZM49.4231 0.615413L49.6154 1.07695L49.6154 1.07695L49.4231 0.615413ZM1.42308 20.6154L1.61538 21.077L1.61539 21.077L1.42308 20.6154ZM0.500038 21.9894L5.02449e-05 21.9859L5.02442e-05 21.9859L0.500038 21.9894ZM1.40359 23.3764L1.60239 22.9176L1.40359 23.3764ZM15.7888 29.61L16.2632 29.4519L16.1926 29.24L15.9876 29.1512L15.7888 29.61ZM19.577 40.9744L20.0513 40.8163L20.0513 40.8163L19.577 40.9744ZM20.5854 41.9416L20.4472 42.4221L20.4472 42.4221L20.5854 41.9416ZM21.9536 41.6579L21.6357 41.272L21.6357 41.272L21.9536 41.6579ZM29.4237 35.5061L29.7699 35.1454L29.4491 34.8374L29.1058 35.1201L29.4237 35.5061ZM40.9612 46.5821L40.6149 46.9428L40.6149 46.9428L40.9612 46.5821ZM42.4604 46.9276L42.6139 47.4035L42.6139 47.4035L42.4604 46.9276ZM43.4753 45.7713L42.9835 45.6809L42.9835 45.6809L43.4753 45.7713ZM5.83503 22.0271L5.64273 21.5656L4.55669 22.0181L5.63623 22.4859L5.83503 22.0271ZM16.2688 26.5484L16.07 27.0072L16.3365 27.1227L16.5688 26.9484L16.2688 26.5484ZM48.0246 4.4481L48.5164 4.53854L48.6831 3.63208L47.8323 3.98656L48.0246 4.4481ZM41.0287 42.4883L40.6825 42.849L41.3525 43.4922L41.5205 42.5787L41.0287 42.4883ZM30.5388 32.4179L30.1925 32.7786L30.1925 32.7786L30.5388 32.4179ZM28.5464 32.3421L28.2286 31.9562L28.2286 31.9562L28.5464 32.3421ZM21.7324 37.9537L21.258 38.1118L21.4882 38.8025L22.0502 38.3397L21.7324 37.9537ZM21.6991 37.854L21.211 37.7455L21.181 37.8807L21.2248 38.0121L21.6991 37.854ZM22 36.5L21.5169 36.3712L21.5142 36.3813L21.5119 36.3916L22 36.5ZM24 29L23.6409 28.6521L23.5504 28.7455L23.5169 28.8712L24 29ZM39.5 13L39.8591 13.3479L39.2499 12.5671L39.5 13ZM17 26L16.7499 25.5671L16.7239 25.5821L16.7 25.6L17 26ZM50.628 1.22179C50.9134 1.45211 51.0498 1.82019 50.9835 2.1809L51.967 2.36178C52.0997 1.64035 51.8268 0.904181 51.2559 0.443552L50.628 1.22179ZM49.6154 1.07695C49.9539 0.93589 50.3425 0.991475 50.628 1.22179L51.2559 0.443552C50.6851 -0.0170787 49.9079 -0.12825 49.2308 0.153875L49.6154 1.07695ZM1.61539 21.077L49.6154 1.07695L49.2308 0.153875L1.23077 20.1539L1.61539 21.077ZM1.00003 21.993C1.00286 21.5918 1.24511 21.2312 1.61538 21.077L1.23077 20.1539C0.490215 20.4624 0.005713 21.1837 5.02449e-05 21.9859L1.00003 21.993ZM1.60239 22.9176C1.23433 22.7581 0.997194 22.3941 1.00003 21.993L5.02442e-05 21.9859C-0.00561235 22.7882 0.468661 23.5162 1.20479 23.8351L1.60239 22.9176ZM15.9876 29.1512L1.60239 22.9176L1.20479 23.8351L15.59 30.0687L15.9876 29.1512ZM20.0513 40.8163L16.2632 29.4519L15.3145 29.7681L19.1026 41.1325L20.0513 40.8163ZM20.7236 41.4611C20.407 41.37 20.1555 41.1288 20.0513 40.8163L19.1026 41.1325C19.311 41.7576 19.8139 42.24 20.4472 42.4221L20.7236 41.4611ZM21.6357 41.272C21.3814 41.4814 21.0402 41.5521 20.7236 41.4611L20.4472 42.4221C21.0804 42.6042 21.7628 42.4628 22.2714 42.0439L21.6357 41.272ZM29.1058 35.1201L21.6357 41.272L22.2714 42.0439L29.7415 35.892L29.1058 35.1201ZM41.3075 46.2214L29.7699 35.1454L29.0774 35.8668L40.6149 46.9428L41.3075 46.2214ZM42.3069 46.4518C41.9568 46.5647 41.5729 46.4762 41.3075 46.2214L40.6149 46.9428C41.1458 47.4524 41.9135 47.6293 42.6139 47.4035L42.3069 46.4518ZM42.9835 45.6809C42.917 46.0428 42.6571 46.3388 42.3069 46.4518L42.6139 47.4035C43.3142 47.1776 43.8339 46.5855 43.967 45.8618L42.9835 45.6809ZM50.9835 2.1809L42.9835 45.6809L43.967 45.8618L51.967 2.36178L50.9835 2.1809ZM5.63623 22.4859L16.07 27.0072L16.4676 26.0896L6.03384 21.5683L5.63623 22.4859ZM47.8323 3.98656L5.64273 21.5656L6.02734 22.4886L48.2169 4.90964L47.8323 3.98656ZM41.5205 42.5787L48.5164 4.53854L47.5329 4.35766L40.537 42.3978L41.5205 42.5787ZM30.1925 32.7786L40.6825 42.849L41.375 42.1276L30.8851 32.0573L30.1925 32.7786ZM28.8643 32.7281C29.2558 32.4057 29.8267 32.4274 30.1925 32.7786L30.8851 32.0573C30.1533 31.3548 29.0116 31.3113 28.2286 31.9562L28.8643 32.7281ZM22.0502 38.3397L28.8643 32.7281L28.2286 31.9562L21.4145 37.5678L22.0502 38.3397ZM21.2248 38.0121L21.258 38.1118L22.2067 37.7956L22.1735 37.6959L21.2248 38.0121ZM21.5119 36.3916L21.211 37.7455L22.1872 37.9624L22.4881 36.6085L21.5119 36.3916ZM23.5169 28.8712L21.5169 36.3712L22.4831 36.6289L24.4831 29.1289L23.5169 28.8712ZM39.1409 12.6521L23.6409 28.6521L24.3591 29.3479L39.8591 13.3479L39.1409 12.6521ZM17.2501 26.433L39.7501 13.433L39.2499 12.5671L16.7499 25.5671L17.2501 26.433ZM16.5688 26.9484L17.3 26.4L16.7 25.6L15.9688 26.1484L16.5688 26.9484Z" fill="black"/>
</svg>
