<svg width="48" height="40" viewBox="0 0 48 40" fill="none" xmlns="http://www.w3.org/2000/svg">
<path fill-rule="evenodd" clip-rule="evenodd" d="M48 10C48 15.5228 43.5228 20 38 20C32.4772 20 28 15.5228 28 10C28 4.47715 32.4772 0 38 0C43.5228 0 48 4.47715 48 10ZM41.0858 6.08579C41.8668 5.30474 43.1332 5.30474 43.9142 6.08579C44.6953 6.86684 44.6953 8.13317 43.9142 8.91421L43.8994 8.92906L43.8846 8.94386L43.8698 8.95862L43.8551 8.97332L43.8404 8.98798L43.8258 9.00259L43.8113 9.01715L43.7968 9.03167L43.7823 9.04614L43.7679 9.06056L43.7535 9.07493L43.7392 9.08926L43.7249 9.10355L43.7106 9.11778L43.6964 9.13198L43.6823 9.14612L43.6682 9.16022L43.6542 9.17428L43.6401 9.18829L43.6262 9.20225L43.6123 9.21617L43.5984 9.23005L43.5845 9.24388L43.5708 9.25767L43.557 9.27141L43.5433 9.28511L43.5297 9.29877L43.516 9.31238L43.5025 9.32596L43.4889 9.33948L43.4755 9.35297L43.462 9.36641L43.4486 9.37981L43.4353 9.39317L43.4219 9.40648L43.4087 9.41976L43.3954 9.43299L43.3822 9.44618L43.3691 9.45933L43.356 9.47244L43.3429 9.48551L43.3299 9.49853L43.3169 9.51152L43.304 9.52447L43.2911 9.53737L43.2782 9.55024L43.2654 9.56307L43.2526 9.57585L43.2398 9.5886L43.2271 9.60131L43.2144 9.61398L43.2018 9.62661L43.1892 9.6392L43.1767 9.65176L43.1642 9.66427L43.1517 9.67675L43.1392 9.68919L43.1268 9.70159L43.1145 9.71396L43.1021 9.72629L43.0899 9.73858L43.0776 9.75083L43.0654 9.76305L43.0532 9.77523L43.0411 9.78737L43.0289 9.79948L43.0169 9.81155L43.0048 9.82359L42.9928 9.83559L42.9809 9.84756L42.9689 9.85949L42.957 9.87138L42.9452 9.88324L42.9334 9.89507L42.9216 9.90686L42.9098 9.91862L42.8981 9.93034L42.8864 9.94203L42.8747 9.95368L42.8631 9.96531L42.8515 9.9769L42.84 9.98845L42.8285 9.99997L42.817 10.0115L42.8055 10.0229L42.7941 10.0343L42.7827 10.0457L42.7713 10.0571L42.76 10.0684L42.7487 10.0797L42.7374 10.091L42.7262 10.1022L42.715 10.1134L42.7038 10.1246L42.6927 10.1358L42.6816 10.1469L42.6705 10.1579L42.6594 10.169L42.6484 10.18L42.6374 10.191L42.6264 10.202L42.6155 10.2129L42.6046 10.2238L42.5937 10.2347L42.5829 10.2455L42.5721 10.2564L42.5613 10.2671L42.5505 10.2779L42.5398 10.2886L42.5291 10.2993L42.5184 10.31L42.5078 10.3207L42.4971 10.3313L42.4865 10.3419L42.476 10.3525L42.4654 10.363L42.4549 10.3735L42.4444 10.384L42.4339 10.3945L42.4235 10.4049L42.4131 10.4153L42.4027 10.4257L42.3923 10.4361L42.382 10.4464L42.3717 10.4567L42.3614 10.467L42.3512 10.4773L42.3409 10.4875L42.3307 10.4977L42.3205 10.5079L42.3103 10.5181L42.3002 10.5282L42.2901 10.5383L42.28 10.5484L42.2699 10.5585L42.2599 10.5686L42.2498 10.5786L42.2398 10.5886L42.2299 10.5986L42.2199 10.6085L42.21 10.6185L42.2 10.6284L42.1901 10.6383L42.1803 10.6482L42.1704 10.658L42.1606 10.6678L42.1508 10.6777L42.141 10.6874L42.1312 10.6972L42.1215 10.707L42.1117 10.7167L42.102 10.7264L42.0923 10.7361L42.0827 10.7458L42.073 10.7554L42.0634 10.765L42.0538 10.7747L42.0442 10.7842L42.0346 10.7938L42.025 10.8034L42.0155 10.8129L42.006 10.8224L41.9965 10.8319L41.987 10.8414L41.9775 10.8509L41.9681 10.8603L41.9586 10.8698L41.9492 10.8792L41.9398 10.8886L41.9304 10.898L41.9211 10.9074L41.9117 10.9167L41.9024 10.926L41.8931 10.9354L41.8838 10.9447L41.8745 10.954L41.8652 10.9632L41.8559 10.9725L41.8467 10.9817L41.8375 10.991L41.8283 11.0002L41.819 11.0094L41.8099 11.0186L41.8007 11.0277L41.7915 11.0369L41.7824 11.046L41.7732 11.0552L41.7641 11.0643L41.755 11.0734L41.7459 11.0825L41.7368 11.0916L41.7278 11.1007L41.7187 11.1097L41.7097 11.1188L41.7006 11.1278L41.6916 11.1368L41.6826 11.1458L41.6736 11.1548L41.6646 11.1638L41.6556 11.1728L41.6467 11.1818L41.6377 11.1907L41.6288 11.1997L41.6198 11.2086L41.6109 11.2175L41.602 11.2264L41.5931 11.2354L41.5842 11.2443L41.5753 11.2531L41.5664 11.262L41.5575 11.2709L41.5487 11.2798L41.5398 11.2886L41.531 11.2975L41.5221 11.3063L41.5133 11.3151L41.5045 11.324L41.4957 11.3328L41.4868 11.3416L41.478 11.3504L41.4692 11.3592L41.4605 11.368L41.4517 11.3768L41.4429 11.3855L41.4341 11.3943L41.4254 11.4031L41.4166 11.4118L41.4078 11.4206L41.3991 11.4293L41.3904 11.4381L41.3816 11.4468L41.3729 11.4555L41.3642 11.4643L41.3554 11.473L41.3467 11.4817L41.338 11.4904L41.3293 11.4991L41.3206 11.5079L41.3119 11.5166L41.3032 11.5253L41.2945 11.534L41.2858 11.5427L41.2771 11.5513L41.2684 11.56L41.2597 11.5687L41.251 11.5774L41.2423 11.5861L41.2336 11.5948L41.225 11.6035L41.2163 11.6121L41.2076 11.6208L41.1989 11.6295L41.1902 11.6382L41.1816 11.6469L41.1729 11.6555L41.1642 11.6642L41.1555 11.6729L41.1469 11.6816L41.1382 11.6902L41.1295 11.6989L41.1208 11.7076L41.1121 11.7163L41.1035 11.725L41.0948 11.7336L41.0861 11.7423L41.0774 11.751L41.0687 11.7597L41.06 11.7684L41.0513 11.7771L41.0427 11.7858L41.034 11.7945L41.0253 11.8032L41.0166 11.8119L41.0079 11.8206L40.9991 11.8293L40.9904 11.838L40.9817 11.8467L40.973 11.8554L40.9643 11.8642L40.9555 11.8729L40.9468 11.8816L40.9381 11.8904L40.9293 11.8991L40.9206 11.9078L40.9118 11.9166L40.9031 11.9254L40.8943 11.9341L40.8855 11.9429L40.8768 11.9517L40.868 11.9605L40.8592 11.9692L40.8504 11.978L40.8416 11.9868L40.8328 11.9957L40.824 12.0045L40.8151 12.0133L40.8063 12.0221L40.7975 12.031L40.7886 12.0398L40.7798 12.0487L40.7709 12.0575L40.762 12.0664L40.7531 12.0753L40.7443 12.0842L40.7354 12.0931L40.7264 12.102L40.7175 12.1109L40.7086 12.1198L40.6997 12.1288L40.6907 12.1377L40.6818 12.1467L40.6728 12.1556L40.6638 12.1646L40.6548 12.1736L40.6458 12.1826L40.6368 12.1916L40.6278 12.2006L40.6188 12.2097L40.6097 12.2187L40.6007 12.2278L40.5916 12.2368L40.5825 12.2459L40.5734 12.255L40.5643 12.2641L40.5552 12.2732L40.546 12.2824L40.5369 12.2915L40.5277 12.3007L40.5186 12.3099L40.5094 12.319L40.5002 12.3283L40.491 12.3375L40.4817 12.3467L40.4725 12.3559L40.4632 12.3652L40.454 12.3745L40.4447 12.3838L40.4354 12.3931L40.426 12.4024L40.4167 12.4117L40.4073 12.4211L40.398 12.4304L40.3886 12.4398L40.3792 12.4492L40.3698 12.4586L40.3603 12.4681L40.3509 12.4775L40.3414 12.487L40.3319 12.4965L40.3224 12.506L40.3129 12.5155L40.3034 12.525L40.2938 12.5346L40.2842 12.5442L40.2747 12.5538L40.265 12.5634L40.2554 12.573L40.2458 12.5827L40.2361 12.5923L40.2264 12.602L40.2167 12.6117L40.207 12.6215L40.1972 12.6312L40.1874 12.641L40.1777 12.6508L40.1678 12.6606L40.158 12.6704L40.1482 12.6803L40.1383 12.6901L40.1284 12.7L40.1185 12.71L40.1085 12.7199L40.0986 12.7299L40.0886 12.7398L40.0786 12.7498L40.0686 12.7599L40.0585 12.7699L40.0484 12.78L40.0383 12.7901L40.0282 12.8002L40.0181 12.8103L40.0079 12.8205L39.9977 12.8307L39.9875 12.8409L39.9773 12.8511L39.967 12.8614L39.9567 12.8717L39.9464 12.882L39.9361 12.8923L39.9257 12.9027L39.9153 12.9131L39.9049 12.9235L39.8945 12.9339L39.884 12.9444L39.8735 12.9549L39.863 12.9654L39.8525 12.976L39.8419 12.9865L39.8313 12.9971L39.8207 13.0078L39.81 13.0184L39.7993 13.0291L39.7886 13.0398L39.7779 13.0505L39.7671 13.0613L39.7564 13.0721L39.7455 13.0829L39.7347 13.0937L39.7238 13.1046L39.7129 13.1155L39.702 13.1265L39.691 13.1374L39.68 13.1484L39.669 13.1594L39.6579 13.1705L39.6469 13.1816L39.6357 13.1927L39.6246 13.2038L39.6134 13.215L39.6022 13.2262L39.591 13.2374L39.5797 13.2487L39.5684 13.26L39.5571 13.2713L39.5457 13.2827L39.5343 13.2941L39.5229 13.3055L39.5115 13.317L39.5 13.3285L39.4884 13.34L39.4769 13.3515L39.4653 13.3631L39.4537 13.3747L39.442 13.3864L39.4303 13.3981L39.4186 13.4098L39.4069 13.4216L39.3951 13.4334L39.3832 13.4452L39.3714 13.457L39.3595 13.4689L39.3476 13.4809L39.3356 13.4928L39.3236 13.5048L39.3116 13.5169L39.2995 13.5289L39.2874 13.5411L39.2752 13.5532L39.263 13.5654L39.2508 13.5776L39.2386 13.5899L39.2263 13.6021L39.214 13.6145L39.2016 13.6268L39.1892 13.6392L39.1768 13.6517L39.1643 13.6642L39.1518 13.6767L39.1392 13.6892L39.1266 13.7018L39.114 13.7144L39.1013 13.7271L39.0886 13.7398L39.0759 13.7526L39.0631 13.7654L39.0502 13.7782L39.0374 13.7911L39.0245 13.804L39.0115 13.8169L38.9985 13.8299L38.9855 13.8429L38.9724 13.856L38.9593 13.8691L38.9462 13.8822L38.933 13.8954L38.9198 13.9087L38.9065 13.9219L38.8932 13.9353L38.8798 13.9486L38.8664 13.962L38.853 13.9755L38.8395 13.9889L38.826 14.0025L38.8124 14.016L38.7988 14.0297L38.7851 14.0433L38.7714 14.057L38.7577 14.0708L38.7439 14.0845L38.73 14.0984L38.7162 14.1123L38.7023 14.1262L38.6883 14.1401L38.6743 14.1542L38.6602 14.1682L38.6461 14.1823L38.632 14.1965L38.6178 14.2106L38.6035 14.2249L38.5893 14.2392L38.5749 14.2535L38.5606 14.2679L38.5461 14.2823L38.5317 14.2968L38.5172 14.3113L38.5026 14.3258L38.488 14.3404L38.4733 14.3551L38.4586 14.3698L38.4439 14.3846L38.4291 14.3994L38.4142 14.4142C37.6332 15.1953 36.3668 15.1953 35.5858 14.4142L32.0858 10.9142C31.3047 10.1332 31.3047 8.86683 32.0858 8.08579C32.8668 7.30474 34.1332 7.30474 34.9142 8.08579L37 10.1716L37.0029 10.1687L37.0135 10.1581L37.024 10.1475L37.0346 10.137L37.0451 10.1265L37.0556 10.116L37.0661 10.1055L37.0765 10.0951L37.0869 10.0847L37.0973 10.0743L37.1077 10.0639L37.118 10.0536L37.1283 10.0433L37.1386 10.033L37.1488 10.0227L37.1591 10.0125L37.1693 10.0023L37.1795 9.99208L37.1897 9.98191L37.1998 9.97177L37.2099 9.96165L37.22 9.95156L37.2301 9.94149L37.2401 9.93144L37.2502 9.92141L37.2602 9.91141L37.2701 9.90142L37.2801 9.89146L37.29 9.88153L37.3 9.87161L37.3099 9.86171L37.3197 9.85184L37.3296 9.84199L37.3394 9.83216L37.3492 9.82235L37.359 9.81256L37.3688 9.80279L37.3785 9.79304L37.3883 9.78331L37.398 9.7736L37.4077 9.76391L37.4173 9.75424L37.427 9.74459L37.4366 9.73496L37.4462 9.72535L37.4558 9.71575L37.4654 9.70618L37.475 9.69662L37.4845 9.68708L37.494 9.67756L37.5035 9.66806L37.513 9.65857L37.5225 9.6491L37.5319 9.63965L37.5414 9.63022L37.5508 9.6208L37.5602 9.6114L37.5696 9.60202L37.5789 9.59265L37.5883 9.5833L37.5976 9.57396L37.6069 9.56464L37.6162 9.55534L37.6255 9.54605L37.6348 9.53677L37.6441 9.52751L37.6533 9.51827L37.6625 9.50904L37.6717 9.49982L37.681 9.49062L37.6901 9.48144L37.6993 9.47226L37.7085 9.4631L37.7176 9.45396L37.7268 9.44482L37.7359 9.4357L37.745 9.42659L37.7541 9.4175L37.7632 9.40842L37.7722 9.39935L37.7813 9.39029L37.7903 9.38124L37.7994 9.37221L37.8084 9.36319L37.8174 9.35418L37.8264 9.34518L37.8354 9.33619L37.8444 9.32721L37.8533 9.31824L37.8623 9.30928L37.8712 9.30034L37.8802 9.2914L37.8891 9.28247L37.898 9.27355L37.9069 9.26464L37.9158 9.25575L37.9247 9.24686L37.9336 9.23798L37.9425 9.2291L37.9513 9.22024L37.9602 9.21138L37.969 9.20254L37.9779 9.1937L37.9867 9.18486L37.9955 9.17604L38.0043 9.16722L38.0132 9.15841L38.022 9.14961L38.0308 9.14082L38.0395 9.13203L38.0483 9.12325L38.0571 9.11447L38.0659 9.1057L38.0746 9.09693L38.0834 9.08817L38.0922 9.07942L38.1009 9.07067L38.1096 9.06193L38.1184 9.05319L38.1271 9.04446L38.1358 9.03573L38.1446 9.02701L38.1533 9.01829L38.162 9.00957L38.1707 9.00086L38.1794 8.99215L38.1881 8.98344L38.1968 8.97474L38.2055 8.96604L38.2142 8.95734L38.2229 8.94865L38.2316 8.93996L38.2403 8.93127L38.249 8.92258L38.2577 8.9139L38.2664 8.90522L38.275 8.89653L38.2837 8.88785L38.2924 8.87917L38.3011 8.87049L38.3098 8.86182L38.3184 8.85314L38.3271 8.84446L38.3358 8.83579L38.3445 8.82711L38.3531 8.81843L38.3618 8.80976L38.3705 8.80108L38.3792 8.7924L38.3879 8.78372L38.3965 8.77504L38.4052 8.76636L38.4139 8.75767L38.4226 8.74899L38.4313 8.7403L38.44 8.73161L38.4487 8.72292L38.4573 8.71423L38.466 8.70553L38.4747 8.69683L38.4834 8.68813L38.4921 8.67943L38.5009 8.67072L38.5096 8.662L38.5183 8.65329L38.527 8.64457L38.5357 8.63584L38.5445 8.62711L38.5532 8.61838L38.5619 8.60964L38.5707 8.6009L38.5794 8.59215L38.5882 8.5834L38.5969 8.57464L38.6057 8.56588L38.6145 8.5571L38.6232 8.54833L38.632 8.53955L38.6408 8.53076L38.6496 8.52196L38.6584 8.51316L38.6672 8.50435L38.676 8.49553L38.6849 8.48671L38.6937 8.47788L38.7025 8.46904L38.7114 8.46019L38.7202 8.45133L38.7291 8.44247L38.738 8.4336L38.7469 8.42472L38.7557 8.41583L38.7646 8.40693L38.7736 8.39802L38.7825 8.3891L38.7914 8.38017L38.8003 8.37124L38.8093 8.36229L38.8182 8.35333L38.8272 8.34437L38.8362 8.33539L38.8452 8.3264L38.8542 8.3174L38.8632 8.30839L38.8722 8.29936L38.8812 8.29033L38.8903 8.28128L38.8993 8.27223L38.9084 8.26315L38.9175 8.25407L38.9266 8.24498L38.9357 8.23587L38.9448 8.22675L38.954 8.21762L38.9631 8.20847L38.9723 8.19931L38.9814 8.19014L38.9906 8.18095L38.9998 8.17175L39.009 8.16253L39.0183 8.1533L39.0275 8.14406L39.0368 8.1348L39.046 8.12553L39.0553 8.11624L39.0646 8.10693L39.074 8.09761L39.0833 8.08828L39.0927 8.07892L39.102 8.06956L39.1114 8.06017L39.1208 8.05077L39.1302 8.04135L39.1397 8.03192L39.1491 8.02247L39.1586 8.013L39.1681 8.00352L39.1776 7.99401L39.1871 7.98449L39.1966 7.97495L39.2062 7.9654L39.2158 7.95582L39.2253 7.94623L39.235 7.93661L39.2446 7.92698L39.2542 7.91733L39.2639 7.90766L39.2736 7.89797L39.2833 7.88826L39.293 7.87853L39.3028 7.86878L39.3126 7.85901L39.3223 7.84923L39.3322 7.83942L39.342 7.82958L39.3518 7.81973L39.3617 7.80986L39.3716 7.79996L39.3815 7.79005L39.3915 7.78011L39.4014 7.77015L39.4114 7.76017L39.4214 7.75016L39.4314 7.74014L39.4415 7.73009L39.4516 7.72001L39.4617 7.70992L39.4718 7.6998L39.4819 7.68966L39.4921 7.67949L39.5023 7.6693L39.5125 7.65909L39.5227 7.64885L39.533 7.63859L39.5433 7.6283L39.5536 7.61799L39.5639 7.60765L39.5743 7.59729L39.5847 7.5869L39.5951 7.57649L39.6055 7.56605L39.616 7.55559L39.6265 7.5451L39.637 7.53458L39.6475 7.52404L39.6581 7.51347L39.6687 7.50287L39.6793 7.49225L39.69 7.4816L39.7007 7.47092L39.7114 7.46021L39.7221 7.44948L39.7329 7.43872L39.7436 7.42793L39.7545 7.41711L39.7653 7.40626L39.7762 7.39539L39.7871 7.38448L39.798 7.37355L39.809 7.36259L39.82 7.35159L39.831 7.34057L39.8421 7.32952L39.8531 7.31844L39.8643 7.30732L39.8754 7.29618L39.8866 7.28501L39.8978 7.2738L39.909 7.26257L39.9203 7.2513L39.9316 7.24L39.9429 7.22867L39.9543 7.21731L39.9657 7.20592L39.9771 7.1945L39.9885 7.18304L40 7.17155L40.0116 7.16002L40.0231 7.14847L40.0347 7.13688L40.0463 7.12526L40.058 7.1136L40.0697 7.10191L40.0814 7.09019L40.0931 7.07843L40.1049 7.06664L40.1168 7.05481L40.1286 7.04295L40.1405 7.03106L40.1524 7.01913L40.1644 7.00716L40.1764 6.99516L40.1884 6.98313L40.2005 6.97105L40.2126 6.95895L40.2248 6.9468L40.237 6.93462L40.2492 6.9224L40.2614 6.91015L40.2737 6.89786L40.286 6.88553L40.2984 6.87317L40.3108 6.86076L40.3232 6.84832L40.3357 6.83585L40.3482 6.82333L40.3608 6.81078L40.3734 6.79818L40.386 6.78555L40.3987 6.77288L40.4114 6.76017L40.4241 6.74743L40.4369 6.73464L40.4498 6.72181L40.4626 6.70895L40.4755 6.69604L40.4885 6.68309L40.5015 6.67011L40.5145 6.65708L40.5276 6.64401L40.5407 6.6309L40.5538 6.61775L40.567 6.60456L40.5802 6.59133L40.5935 6.57806L40.6068 6.56474L40.6202 6.55138L40.6336 6.53798L40.647 6.52454L40.6605 6.51106L40.674 6.49753L40.6876 6.48396L40.7012 6.47034L40.7149 6.45669L40.7286 6.44299L40.7423 6.42924L40.7561 6.41545L40.77 6.40162L40.7838 6.38775L40.7977 6.37383L40.8117 6.35986L40.8257 6.34585L40.8398 6.33179L40.8539 6.31769L40.868 6.30355L40.8822 6.28936L40.8965 6.27512L40.9107 6.26084L40.9251 6.24651L40.9394 6.23213L40.9539 6.21771L40.9683 6.20324L40.9828 6.18873L40.9974 6.17416L41.012 6.15955L41.0267 6.1449L41.0414 6.13019L41.0561 6.11544L41.0709 6.10064L41.0858 6.08579ZM4 10C4 8.89543 4.89543 8 6 8H22.5C23.6046 8 24.5 8.89543 24.5 10C24.5 11.1046 23.6046 12 22.5 12H8V32H40V24.5C40 23.3954 40.8954 22.5 42 22.5C43.1046 22.5 44 23.3954 44 24.5V34C44 35.1046 43.1046 36 42 36H46C47.1046 36 48 36.8954 48 38C48 39.1046 47.1046 40 46 40H2C0.89543 40 0 39.1046 0 38C0 36.8954 0.89543 36 2 36H6C4.89543 36 4 35.1046 4 34V10Z" fill="black"/>
</svg>
