<svg width="54" height="50" viewBox="0 0 54 50" fill="none" xmlns="http://www.w3.org/2000/svg">
<path fill-rule="evenodd" clip-rule="evenodd" d="M53.4588 3.45222C53.6246 2.55043 53.2835 1.63022 52.5699 1.05443C51.8563 0.478644 50.8848 0.33968 50.0385 0.692337L2.03846 20.6923C1.11277 21.078 0.507141 21.9796 0.500063 22.9824C0.492985 23.9852 1.08583 24.8952 2.00598 25.2939L15.9814 31.3499L19.6283 42.2906C19.8888 43.072 20.5174 43.675 21.309 43.9026C22.1005 44.1303 22.9535 43.9535 23.5893 43.4299L30.3728 37.8434L41.2687 48.3035C41.9322 48.9405 42.8919 49.1617 43.7673 48.8794C44.6427 48.597 45.2924 47.8568 45.4588 46.9522L53.4588 3.45222ZM18.2222 26.8717L9.39172 23.0451L47.7077 7.08015L41.3812 41.4804L32.2313 32.6966C31.3167 31.8185 29.8895 31.7642 28.9107 32.5702L23.2206 37.2562L23.1342 36.9969L25 30L40.5 14L18.2222 26.8717Z" fill="black"/>
<path d="M52.5699 1.05443L52.8839 0.665314L52.8839 0.665313L52.5699 1.05443ZM53.4588 3.45222L53.9505 3.54265L53.9505 3.54265L53.4588 3.45222ZM50.0385 0.692337L50.2308 1.15388L50.2308 1.15388L50.0385 0.692337ZM2.03846 20.6923L2.23077 21.1539L2.23077 21.1539L2.03846 20.6923ZM0.500063 22.9824L7.51456e-05 22.9789L7.51448e-05 22.9789L0.500063 22.9824ZM2.00598 25.2939L1.80718 25.7527L1.80718 25.7527L2.00598 25.2939ZM15.9814 31.3499L16.4557 31.1918L16.3851 30.98L16.1802 30.8912L15.9814 31.3499ZM19.6283 42.2906L19.154 42.4487L19.154 42.4487L19.6283 42.2906ZM21.309 43.9026L21.4472 43.4221L21.4472 43.4221L21.309 43.9026ZM23.5893 43.4299L23.2714 43.0439L23.2714 43.0439L23.5893 43.4299ZM30.3728 37.8434L30.719 37.4827L30.3982 37.1748L30.0549 37.4575L30.3728 37.8434ZM41.2687 48.3035L40.9224 48.6642L40.9224 48.6642L41.2687 48.3035ZM43.7673 48.8794L43.9208 49.3552L43.9208 49.3552L43.7673 48.8794ZM45.4588 46.9522L45.9505 47.0427L45.9505 47.0427L45.4588 46.9522ZM9.39172 23.0451L9.19942 22.5836L8.11338 23.0361L9.19292 23.5039L9.39172 23.0451ZM18.2222 26.8717L18.0234 27.3304L18.2543 27.4305L18.4723 27.3046L18.2222 26.8717ZM47.7077 7.08015L48.1995 7.17059L48.3662 6.26413L47.5154 6.61861L47.7077 7.08015ZM41.3812 41.4804L41.0349 41.8411L41.705 42.4844L41.873 41.5709L41.3812 41.4804ZM32.2313 32.6966L31.8851 33.0573L31.8851 33.0573L32.2313 32.6966ZM28.9107 32.5702L29.2286 32.9562L29.2286 32.9562L28.9107 32.5702ZM23.2206 37.2562L22.7463 37.4143L22.9765 38.105L23.5385 37.6421L23.2206 37.2562ZM23.1342 36.9969L22.6511 36.868L22.6124 37.0128L22.6598 37.155L23.1342 36.9969ZM25 30L24.6409 29.6521L24.5504 29.7455L24.5169 29.8712L25 30ZM40.5 14L40.8591 14.3479L40.2499 13.5671L40.5 14ZM52.2559 1.44355C52.8268 1.90418 53.0997 2.64035 52.967 3.36178L53.9505 3.54265C54.1495 2.46051 53.7402 1.35626 52.8839 0.665314L52.2559 1.44355ZM50.2308 1.15388C50.9079 0.87175 51.6851 0.982921 52.2559 1.44355L52.8839 0.665313C52.0276 -0.0256323 50.8618 -0.192389 49.8462 0.230798L50.2308 1.15388ZM2.23077 21.1539L50.2308 1.15388L49.8462 0.230798L1.84615 20.2308L2.23077 21.1539ZM1.00005 22.9859C1.00571 22.1837 1.49022 21.4624 2.23077 21.1539L1.84615 20.2308C0.735322 20.6936 0.00856923 21.7755 7.51456e-05 22.9789L1.00005 22.9859ZM2.20479 24.8351C1.46866 24.5162 0.994388 23.7882 1.00005 22.9859L7.51448e-05 22.9789C-0.00841866 24.1822 0.70299 25.2742 1.80718 25.7527L2.20479 24.8351ZM16.1802 30.8912L2.20479 24.8351L1.80718 25.7527L15.7826 31.8087L16.1802 30.8912ZM20.1026 42.1325L16.4557 31.1918L15.5071 31.508L19.154 42.4487L20.1026 42.1325ZM21.4472 43.4221C20.8139 43.24 20.311 42.7576 20.1026 42.1325L19.154 42.4487C19.4665 43.3864 20.2209 44.1099 21.1708 44.3831L21.4472 43.4221ZM23.2714 43.0439C22.7628 43.4628 22.0804 43.6042 21.4472 43.4221L21.1708 44.3831C22.1206 44.6564 23.1442 44.4442 23.9071 43.8158L23.2714 43.0439ZM30.0549 37.4575L23.2714 43.0439L23.9071 43.8158L30.6906 38.2294L30.0549 37.4575ZM41.6149 47.9428L30.719 37.4827L30.0265 38.2041L40.9224 48.6642L41.6149 47.9428ZM43.6139 48.4035C42.9135 48.6293 42.1458 48.4524 41.6149 47.9428L40.9224 48.6642C41.7186 49.4286 42.8703 49.694 43.9208 49.3552L43.6139 48.4035ZM44.967 46.8618C44.8339 47.5855 44.3142 48.1776 43.6139 48.4035L43.9208 49.3552C44.9713 49.0165 45.7509 48.1282 45.9505 47.0427L44.967 46.8618ZM52.967 3.36178L44.967 46.8618L45.9505 47.0427L53.9505 3.54265L52.967 3.36178ZM9.19292 23.5039L18.0234 27.3304L18.421 26.4129L9.59053 22.5864L9.19292 23.5039ZM47.5154 6.61861L9.19942 22.5836L9.58403 23.5067L47.9 7.54169L47.5154 6.61861ZM41.873 41.5709L48.1995 7.17059L47.216 6.98972L40.8895 41.39L41.873 41.5709ZM31.8851 33.0573L41.0349 41.8411L41.7275 41.1198L32.5776 32.3359L31.8851 33.0573ZM29.2286 32.9562C30.0116 32.3113 31.1533 32.3548 31.8851 33.0573L32.5776 32.3359C31.48 31.2822 29.7674 31.217 28.5929 32.1842L29.2286 32.9562ZM23.5385 37.6421L29.2286 32.9562L28.5929 32.1842L22.9028 36.8702L23.5385 37.6421ZM22.6598 37.155L22.7463 37.4143L23.695 37.0981L23.6085 36.8388L22.6598 37.155ZM24.5169 29.8712L22.6511 36.868L23.6173 37.1257L25.4831 30.1289L24.5169 29.8712ZM40.1409 13.6521L24.6409 29.6521L25.3591 30.3479L40.8591 14.3479L40.1409 13.6521ZM18.4723 27.3046L40.7501 14.433L40.2499 13.5671L17.972 26.4387L18.4723 27.3046Z" fill="black"/>
</svg>
