<svg width="48" height="32" viewBox="0 0 48 32" fill="none" xmlns="http://www.w3.org/2000/svg">
<path fill-rule="evenodd" clip-rule="evenodd" d="M16.1056 2.21121C18.3977 1.06514 20.7127 -0.0288094 24.0175 7.11512e-05C24.0884 0.000691278 24.159 0.00126348 24.2292 0.00183283C26.3111 0.0187163 28.0767 0.0330342 30.4062 1.21709C32.2089 2.13334 32.9483 2.70189 34.3723 4.04511C35.3067 4.92644 35.9709 5.88739 36.554 6.73095C36.5844 6.77482 36.6145 6.81837 36.6444 6.86157C37.2619 7.75358 37.5508 8.37885 37.8873 9.33804C38.0845 9.90035 38.2047 10.5295 38.2764 10.9048C38.2953 11.0038 38.3108 11.0851 38.3235 11.1429C38.4015 11.4979 38.4659 11.6302 38.5648 11.7545C38.5633 11.7526 38.5647 11.7541 38.569 11.7586C38.5819 11.7723 38.6212 11.814 38.6895 11.8787C38.7254 11.9126 38.7582 11.9425 38.7815 11.9634L38.8066 11.9857L38.8089 11.9878L38.8101 11.9888L38.811 11.9896L38.8128 11.9911C38.8145 11.9922 38.8163 11.9933 38.8181 11.9944C38.8816 12.0323 38.9876 12.0897 39.1468 12.1676C39.4651 12.3232 39.8924 12.5105 40.4095 12.7287C40.6954 12.8493 41.0087 12.9792 41.3363 13.115C42.1448 13.4502 43.0406 13.8215 43.8276 14.1793L43.8613 14.1946L43.8944 14.2111L43 16C43.8944 14.2111 43.8955 14.2117 43.8966 14.2122L43.8988 14.2133L43.9034 14.2157L43.9135 14.2208L43.9372 14.2331C43.9544 14.2421 43.9746 14.2529 43.9975 14.2655C44.0434 14.2907 44.1004 14.3233 44.1669 14.3637C44.2996 14.4443 44.4714 14.5567 44.6688 14.7047C45.0625 15 45.5653 15.4425 46.0617 16.0631C47.075 17.3297 48 19.2642 48 22C48 24.9275 46.5457 27.4078 44.8517 29.1017C43.2253 30.7281 40.9957 32 39 32H11.0012C11.001 32 11 32 11 30C11 32 10.9997 32 10.9995 32L10.9946 32L10.9862 32L10.9609 31.9998C10.9403 31.9996 10.9123 31.9993 10.8776 31.9987C10.8084 31.9975 10.7122 31.9952 10.595 31.9907C10.3622 31.9818 10.0389 31.9639 9.67599 31.9276C9.03559 31.8635 7.9614 31.7168 7.10558 31.2889C6.32268 30.8974 5.37639 30.0795 4.78707 29.5491C4.45382 29.2492 4.15593 28.9678 3.94191 28.762C3.83449 28.6587 3.74722 28.5735 3.68603 28.5134L3.63851 28.4665C3.60213 28.4343 3.55579 28.3923 3.50091 28.3407C3.38746 28.234 3.23681 28.0854 3.06164 27.8956C2.71232 27.5172 2.25928 26.9684 1.80902 26.2555C0.907138 24.8275 0 22.7119 0 20C0 17.2881 0.907138 15.1725 1.80902 13.7445C2.25928 13.0316 2.71232 12.4828 3.06164 12.1044C3.23681 11.9146 3.38746 11.766 3.50091 11.6593C3.55768 11.6059 3.60531 11.5628 3.64224 11.5302C3.66071 11.5139 3.67652 11.5002 3.68948 11.4891L3.69158 11.4873L3.69504 11.4842L3.74006 11.445C3.77808 11.412 3.83184 11.3657 3.89844 11.3091C4.03116 11.1964 4.21737 11.0409 4.43338 10.8683C4.84207 10.5419 5.44353 10.0842 6.01161 9.76129C6.62356 9.41342 7.38173 9.11669 7.91152 8.92474C8.19156 8.82328 8.43933 8.73995 8.61774 8.68176C8.70728 8.65255 8.78019 8.6294 8.83197 8.61318L8.89344 8.59407L8.91137 8.58857L8.91289 8.58811C9.42521 8.42984 9.9424 8.37504 10.1809 8.34977C10.222 8.34542 10.2548 8.34194 10.2779 8.33896C10.3751 8.32642 10.4117 8.31773 10.4232 8.31457C10.4241 8.31405 10.4251 8.31342 10.4262 8.31267C10.5205 8.2527 10.5574 8.21739 10.5923 8.18033C10.6183 8.15283 10.6531 8.11289 10.7081 8.04463C10.7544 7.98706 10.8006 7.92755 10.8632 7.84691C10.8811 7.82385 10.9003 7.79907 10.9213 7.77211C11.0307 7.6315 11.2002 7.32094 11.3719 6.93271C11.4482 6.76017 11.5111 6.60413 11.5546 6.49199C11.5762 6.43639 11.5925 6.39282 11.6028 6.36486L11.6136 6.33541L11.6146 6.33272L11.6154 6.33053L11.6972 6.0993L11.8342 5.89308L13.5 6.99999C11.8342 5.89308 11.8346 5.89262 11.8349 5.89215L11.8369 5.8891L11.84 5.88441L11.8478 5.87295L11.869 5.84194C11.8857 5.81776 11.9075 5.7866 11.9345 5.74915C11.9884 5.67431 12.0628 5.57397 12.1575 5.45358C12.3464 5.21339 12.6185 4.88983 12.971 4.52778C13.6695 3.81053 14.7211 2.90343 16.1056 2.21121ZM15.2758 7.95945C15.216 8.11279 15.1323 8.31937 15.0302 8.55031C14.8359 8.98976 14.5055 9.67919 14.0787 10.2279C14.0569 10.256 14.0347 10.2846 14.0122 10.3137C13.7005 10.7172 13.3156 11.2152 12.5738 11.6873C11.8807 12.1283 11.2422 12.2477 10.7894 12.3061C10.636 12.3259 10.5266 12.3384 10.4433 12.3479C10.2656 12.3681 10.2064 12.3748 10.0931 12.41L10.0798 12.4142L10.0705 12.417L10.0282 12.4301C9.98965 12.4422 9.93153 12.4606 9.85811 12.4846C9.71061 12.5327 9.50478 12.6019 9.27408 12.6855C8.78241 12.8636 8.29057 13.0669 7.98839 13.2387C7.70771 13.3983 7.30918 13.6906 6.93005 13.9935C6.75215 14.1356 6.59751 14.2647 6.48784 14.3579C6.43326 14.4042 6.39045 14.4411 6.36219 14.4657L6.33123 14.4927L6.3247 14.4984L6.32394 14.4991L6.30271 14.5178L6.29077 14.5278C6.29064 14.5279 6.29091 14.5276 6.29077 14.5278C6.28375 14.534 6.26654 14.5494 6.24128 14.5731C6.19066 14.6207 6.10694 14.7026 6.00086 14.8175C5.78768 15.0484 5.49072 15.4059 5.19098 15.8805C4.59286 16.8275 4 18.2119 4 20C4 21.7881 4.59286 23.1725 5.19098 24.1195C5.49072 24.5941 5.78768 24.9516 6.00086 25.1825C6.10694 25.2974 6.19066 25.3793 6.24128 25.4269C6.26654 25.4506 6.28336 25.4657 6.29038 25.4719C6.29052 25.472 6.29024 25.4718 6.29038 25.4719L6.35006 25.5216L6.41388 25.5855L6.41715 25.5887L6.43109 25.6026L6.48975 25.6605C6.54185 25.7116 6.61863 25.7866 6.71434 25.8786C6.90657 26.0635 7.17118 26.3133 7.46293 26.5759C8.12361 27.1705 8.67732 27.6026 8.89442 27.7111C9.0386 27.7832 9.46441 27.8865 10.074 27.9474C10.3361 27.9736 10.5753 27.987 10.7487 27.9937C10.8347 27.997 10.9025 27.9986 10.9466 27.9993L10.9937 27.9999L11.0003 28H11.0016H11.0026H39C39.5043 28 40.7747 27.5219 42.0233 26.2733C43.2043 25.0922 44 23.5725 44 22C44 20.2358 43.425 19.1703 42.9383 18.5619C42.6847 18.245 42.4375 18.0313 42.2687 17.9047C42.1902 17.8458 42.1304 17.807 42.0974 17.7867C41.395 17.4695 40.6333 17.1538 39.8784 16.8409C39.5336 16.698 39.1902 16.5557 38.8546 16.4141C38.3277 16.1918 37.814 15.9684 37.3897 15.761C37.1776 15.6573 36.962 15.545 36.7654 15.4275C36.61 15.3346 36.3719 15.1835 36.149 14.9753C36.138 14.9656 36.1251 14.9541 36.1106 14.9411C36.0671 14.902 36.0071 14.8474 35.9395 14.7834C35.8236 14.6737 35.6131 14.4691 35.4352 14.2455C34.7945 13.4405 34.5555 12.6332 34.4166 12.0007C34.3602 11.7438 34.3236 11.5512 34.2932 11.3907C34.2394 11.1073 34.2046 10.9238 34.1127 10.662C33.8711 9.9731 33.7322 9.68235 33.3556 9.13841L33.3532 9.13495C32.7021 8.1945 32.251 7.54284 31.6277 6.95488C30.4326 5.82758 30.0008 5.49807 28.5938 4.7829C27.1096 4.0285 26.1733 4.01906 23.9825 3.99992C21.696 3.97994 20.1146 4.67881 17.8944 5.7889C17.0227 6.22476 16.3244 6.81763 15.8369 7.31833C15.5964 7.56526 15.4166 7.78016 15.3017 7.9262C15.2926 7.93775 15.284 7.94883 15.2758 7.95945Z" fill="black"/>
</svg>
