<svg width="36" height="36" viewBox="0 0 36 36" fill="none" xmlns="http://www.w3.org/2000/svg">
<path fill-rule="evenodd" clip-rule="evenodd" d="M10 10C11.1046 10 12 10.8954 12 12V14C12 15.1046 11.1046 16 10 16C8.89543 16 8 15.1046 8 14V12C8 10.8954 8.89543 10 10 10Z" fill="black"/>
<path fill-rule="evenodd" clip-rule="evenodd" d="M26 10C27.1046 10 28 10.8954 28 12V14C28 15.1046 27.1046 16 26 16C24.8954 16 24 15.1046 24 14V12C24 10.8954 24.8954 10 26 10Z" fill="black"/>
<path fill-rule="evenodd" clip-rule="evenodd" d="M4.5 4H5H5.5H8.97254H10V0H4.5C2.01472 0 0 2.01472 0 4.5V10H4V9V8.97254V5.5V5V4.5C4 4.22386 4.22386 4 4.5 4Z" fill="black"/>
<path fill-rule="evenodd" clip-rule="evenodd" d="M32 4.5V5V5.5V8.97254V10H36V4.5C36 2.01472 33.9853 0 31.5 0H26V4H27H27.0275H30.5H31H31.5C31.7761 4 32 4.22386 32 4.5Z" fill="black"/>
<path fill-rule="evenodd" clip-rule="evenodd" d="M31.5 32H31H30.5H27.0275H26V36H31.5C33.9853 36 36 33.9853 36 31.5V26H32V27V27.0275V30.5V31V31.5C32 31.7761 31.7761 32 31.5 32Z" fill="black"/>
<path fill-rule="evenodd" clip-rule="evenodd" d="M4 31.5V31V30.5V27.0275V26H0V31.5C0 33.9853 2.01472 36 4.5 36H10V32H9H8.97254H5.5H5H4.5C4.22386 32 4 31.7761 4 31.5Z" fill="black"/>
<path fill-rule="evenodd" clip-rule="evenodd" d="M18 10C19.1046 10 20 10.8954 20 12V18C20 18.5304 19.7893 19.0391 19.4142 19.4142L17.4142 21.4142C16.6332 22.1953 15.3668 22.1953 14.5858 21.4142C13.8047 20.6332 13.8047 19.3668 14.5858 18.5858L16 17.1716V12C16 10.8954 16.8954 10 18 10Z" fill="black"/>
<path fill-rule="evenodd" clip-rule="evenodd" d="M11.7904 26.1129C12.2803 25.4449 13.219 25.3005 13.887 25.7904L14.8547 26.5H21.1453L22.1129 25.7904C22.781 25.3005 23.7197 25.4449 24.2096 26.1129C24.6995 26.781 24.5551 27.7197 23.887 28.2096L22.5234 29.2096C22.2661 29.3983 21.9554 29.5 21.6364 29.5H14.3636C14.0446 29.5 13.7339 29.3983 13.4766 29.2096L12.1129 28.2096C11.4449 27.7197 11.3005 26.781 11.7904 26.1129Z" fill="black"/>
</svg>
