<svg width="60" height="58" viewBox="0 0 60 58" fill="none" xmlns="http://www.w3.org/2000/svg">
<path fill-rule="evenodd" clip-rule="evenodd" d="M27.5 0V7.5H32.5V0H27.5ZM6.98223 10.5178L12.2855 15.8211L15.8211 12.2855L10.5178 6.98223L6.98223 10.5178ZM32.5 42.25C38.2056 41.0918 42.5 36.0474 42.5 30C42.5 23.0964 36.9036 17.5 30 17.5C23.0964 17.5 17.5 23.0964 17.5 30C17.5 36.0474 21.7944 41.0918 27.5 42.25V42.25V47.3228V51.9645L28.0355 52.5001H31.9645L32.5 51.9645V47.3228V42.25V42.25ZM12.5 30C12.5 36.981 16.5876 43.0073 22.5 45.8159V53.0001C22.5 53.6631 22.7634 54.299 23.2322 54.7678L25.2322 56.7678C25.7011 57.2367 26.337 57.5001 27 57.5001H33C33.663 57.5001 34.2989 57.2367 34.7678 56.7678L36.7678 54.7678C37.2366 54.299 37.5 53.6631 37.5 53.0001V45.8159C43.4124 43.0073 47.5 36.981 47.5 30C47.5 20.335 39.665 12.5 30 12.5C20.335 12.5 12.5 20.335 12.5 30ZM44.1789 12.2855L49.4822 6.98223L53.0178 10.5178L47.7145 15.8211L44.1789 12.2855ZM53.0178 49.4822L47.7145 44.1789L44.1789 47.7145L49.4822 53.0178L53.0178 49.4822ZM15.8211 47.7145L10.5178 53.0178L6.98223 49.4822L12.2855 44.1789L15.8211 47.7145ZM52.5 32.5H60V27.5H52.5V32.5ZM7.5 32.5H0V27.5H7.5V32.5Z" fill="black"/>
</svg>
